<svg width="34" height="25" viewBox="0 0 34 25" fill="none" xmlns="http://www.w3.org/2000/svg">
<path d="M0.695675 2.02839C5.27054 5.9028 13.298 12.7191 15.6574 14.8444C15.9741 15.1313 16.3138 15.2771 16.6665 15.2771C17.0185 15.2771 17.3576 15.1326 17.6736 14.8471C20.035 12.7197 28.0625 5.9028 32.6374 2.02839C32.9222 1.78763 32.9657 1.36445 32.7351 1.07012C32.202 0.389974 31.4072 0 30.5554 0H2.77764C1.92588 0 1.13103 0.389974 0.598019 1.07018C0.36742 1.36445 0.410845 1.78763 0.695675 2.02839Z" fill="white"/>
<path d="M32.9305 4.12822C32.6844 4.01364 32.3948 4.05361 32.19 4.22861C27.1165 8.52952 20.6414 14.0424 18.6042 15.8782C17.4607 16.9103 15.8738 16.9103 14.7277 15.8768C12.5562 13.9203 5.2849 7.73877 1.14336 4.22855C0.937174 4.05355 0.64694 4.01494 0.402799 4.12815C0.157357 4.24215 0 4.48766 0 4.75823V22.2224C0 23.7545 1.24577 25.0002 2.7778 25.0002H30.5556C32.0876 25.0002 33.3333 23.7545 33.3333 22.2224V4.75823C33.3333 4.48766 33.176 4.2415 32.9305 4.12822Z" fill="white"/>
</svg>
