<svg width="19" height="22" viewBox="0 0 19 22" fill="none" xmlns="http://www.w3.org/2000/svg">
<g clip-path="url(#clip0)">
<path d="M16.9643 1.375H2.03571C1.49581 1.375 0.978017 1.5923 0.596247 1.97909C0.214476 2.36589 0 2.89049 0 3.4375L0 18.5625C0 19.1095 0.214476 19.6341 0.596247 20.0209C0.978017 20.4077 1.49581 20.625 2.03571 20.625H7.85658V14.0804H5.18471V11H7.85658V8.65219C7.85658 5.98168 9.42578 4.50656 11.8292 4.50656C12.9802 4.50656 14.1838 4.71453 14.1838 4.71453V7.33563H12.8577C11.551 7.33563 11.1434 8.15719 11.1434 8.9998V11H14.0604L13.5939 14.0804H11.1434V20.625H16.9643C17.5042 20.625 18.022 20.4077 18.4038 20.0209C18.7855 19.6341 19 19.1095 19 18.5625V3.4375C19 2.89049 18.7855 2.36589 18.4038 1.97909C18.022 1.5923 17.5042 1.375 16.9643 1.375Z" fill="#121E30"/>
</g>
<defs>
<clipPath id="clip0">
<rect width="19" height="22" fill="white"/>
</clipPath>
</defs>
</svg>
