<svg width="31" height="35" viewBox="0 0 31 35" fill="none" xmlns="http://www.w3.org/2000/svg">
<g clip-path="url(#clip0)">
<path d="M27.6786 2.1875H3.32143C2.44053 2.1875 1.59571 2.5332 0.972824 3.14856C0.349935 3.76391 0 4.59851 0 5.46875L0 29.5312C0 30.4015 0.349935 31.2361 0.972824 31.8514C1.59571 32.4668 2.44053 32.8125 3.32143 32.8125H12.8186V22.4007H8.45926V17.5H12.8186V13.7648C12.8186 9.51631 15.3789 7.16953 19.3003 7.16953C21.1783 7.16953 23.1421 7.50039 23.1421 7.50039V11.6703H20.9783C18.8463 11.6703 18.1814 12.9773 18.1814 14.3179V17.5H22.9407L22.1795 22.4007H18.1814V32.8125H27.6786C28.5595 32.8125 29.4043 32.4668 30.0272 31.8514C30.6501 31.2361 31 30.4015 31 29.5312V5.46875C31 4.59851 30.6501 3.76391 30.0272 3.14856C29.4043 2.5332 28.5595 2.1875 27.6786 2.1875Z" fill="white"/>
</g>
<defs>
<clipPath id="clip0">
<rect width="31" height="35" fill="white"/>
</clipPath>
</defs>
</svg>
