<svg width="33" height="33" viewBox="0 0 33 33" fill="none" xmlns="http://www.w3.org/2000/svg">
<path d="M24.7238 0H8.25C3.71905 0 0 3.71905 0 8.27619V24.75C0 29.281 3.71905 33 8.25 33H24.7238C29.281 33 33 29.281 33 24.7238V8.27619C33 3.71905 29.281 0 24.7238 0ZM15.6095 6.78333C15.6619 5.97143 16.4214 6.25952 16.8143 6.20714C21.7381 6.36429 25.981 10.7905 25.9286 15.5571C25.9286 16.0286 26.0857 16.7095 25.3786 16.7095C24.6976 16.7095 24.881 16.0024 24.8024 15.531C24.1476 10.4762 21.7905 8.09286 16.6571 7.30714C16.2381 7.25476 15.5833 7.33333 15.6095 6.78333ZM22.969 15.7667C22.1833 15.8714 22.3405 15.1905 22.2619 14.7452C21.7381 11.6548 20.6381 10.5286 17.469 9.84762C16.9976 9.74286 16.2643 9.82143 16.3952 9.11429C16.5 8.43333 17.1548 8.66905 17.6524 8.72143C20.8214 9.0881 23.4143 11.7857 23.3881 14.7452C23.3357 15.0595 23.5452 15.6619 22.969 15.7667ZM21.0048 14.1429C21.0048 14.5619 20.9524 14.9548 20.481 15.0071C20.1405 15.0595 19.931 14.7714 19.8786 14.431C19.7476 13.1738 19.0667 12.4143 17.7571 12.2048C17.3643 12.1524 16.9976 12.0214 17.181 11.4976C17.3119 11.1571 17.6262 11.1048 17.9667 11.1048C19.381 11.0786 21.0048 12.7286 21.0048 14.1429ZM25.981 23.8071C25.431 25.3 23.5714 26.819 21.9738 26.7929C21.7381 26.7405 21.2929 26.6619 20.9 26.5048C13.881 23.5452 8.77381 18.6738 5.89286 11.7071C4.92381 9.37619 5.94524 7.38572 8.38095 6.6C8.82619 6.44286 9.24524 6.44286 9.69048 6.6C10.7381 6.96667 13.3833 10.5548 13.4357 11.6024C13.4881 12.4143 12.9119 12.8595 12.3619 13.2262C11.2881 13.9333 11.2881 14.8238 11.7595 15.8452C12.781 18.0976 14.5357 19.669 16.8143 20.6643C17.6262 21.031 18.4381 21.0048 18.9881 20.1667C19.9833 18.6738 21.2143 18.7524 22.55 19.669C23.231 20.1405 23.9119 20.5857 24.5405 21.0833C25.4048 21.7905 26.5048 22.3667 25.981 23.8071Z" fill="white"/>
</svg>
