<svg width="41" height="35" viewBox="0 0 41 35" fill="none" xmlns="http://www.w3.org/2000/svg">
<path d="M39.1248 8.48224C38.6777 6.86554 37.3605 5.59228 35.6879 5.16018C32.6563 4.375 20.5 4.375 20.5 4.375C20.5 4.375 8.34383 4.375 5.31218 5.16018C3.63965 5.59234 2.32239 6.86554 1.8753 8.48224C1.06299 11.4126 1.06299 17.5265 1.06299 17.5265C1.06299 17.5265 1.06299 23.6404 1.8753 26.5708C2.32239 28.1875 3.63965 29.4077 5.31218 29.8398C8.34383 30.625 20.5 30.625 20.5 30.625C20.5 30.625 32.6563 30.625 35.6879 29.8398C37.3605 29.4077 38.6777 28.1875 39.1248 26.5708C39.9371 23.6404 39.9371 17.5265 39.9371 17.5265C39.9371 17.5265 39.9371 11.4126 39.1248 8.48224ZM16.5243 23.0775V11.9755L26.6845 17.5267L16.5243 23.0775Z" fill="white"/>
</svg>
