<svg width="25" height="22" viewBox="0 0 25 22" fill="none" xmlns="http://www.w3.org/2000/svg">
<path d="M23.8566 5.33169C23.584 4.31548 22.7808 3.51514 21.761 3.24354C19.9124 2.75 12.5001 2.75 12.5001 2.75C12.5001 2.75 5.08773 2.75 3.23917 3.24354C2.21933 3.51519 1.41612 4.31548 1.14351 5.33169C0.648193 7.17363 0.648193 11.0167 0.648193 11.0167C0.648193 11.0167 0.648193 14.8597 1.14351 16.7017C1.41612 17.7179 2.21933 18.4849 3.23917 18.7565C5.08773 19.25 12.5001 19.25 12.5001 19.25C12.5001 19.25 19.9124 19.25 21.761 18.7565C22.7808 18.4849 23.584 17.7179 23.8566 16.7017C24.3519 14.8597 24.3519 11.0167 24.3519 11.0167C24.3519 11.0167 24.3519 7.17363 23.8566 5.33169ZM10.0758 14.5059V7.52748L16.2711 11.0168L10.0758 14.5059Z" fill="#121E30"/>
</svg>
